<?xml version="1.0" encoding="UTF-8" standalone="no"?>
<svg
   xmlns:dc="http://purl.org/dc/elements/1.1/"
   xmlns:cc="http://creativecommons.org/ns#"
   xmlns:rdf="http://www.w3.org/1999/02/22-rdf-syntax-ns#"
   xmlns:svg="http://www.w3.org/2000/svg"
   xmlns="http://www.w3.org/2000/svg"
   id="svg8"
   version="1.1"
   viewBox="0 0 150.51129 150.43474"
   height="568.57227"
   width="568.86157">
  <defs
     id="defs2" />
  <metadata
     id="metadata5">
    <rdf:RDF>
      <cc:Work
         rdf:about="">
        <dc:format>image/svg+xml</dc:format>
        <dc:type
           rdf:resource="http://purl.org/dc/dcmitype/StillImage" />
        <dc:title></dc:title>
      </cc:Work>
    </rdf:RDF>
  </metadata>
  <g
     transform="translate(-8.7872821,-70.592073)"
     id="layer1">
    <path
       style="opacity:1;fill:#f7a2a2;fill-opacity:1;stroke:none;stroke-width:0.99999994px;stroke-linecap:butt;stroke-linejoin:miter;stroke-opacity:1"
       d="m 188.14062,286.80469 c -11.11167,0 -33.58676,3.09671 -46.71874,11.93554 L 75.761719,350.25781 H 317.14258 558.52344 l -65.65821,-51.51758 c -13.13196,-8.83883 -35.609,-11.93554 -46.7207,-11.93554 -86.0013,0 -172.00261,0 -258.00391,0 z"
       transform="scale(0.26458333)"
       id="path836" />
    <path
       style="opacity:1;fill:#c62013;fill-opacity:1;stroke:none;stroke-width:0.99999994;stroke-opacity:1"
       d="m 112.67773,335.37695 c -29.579633,0 -55.012528,23.85732 -53.392574,53.39258 l 20,364.64258 c 1.619955,29.53527 26.670364,61.96484 56.250004,61.96484 121.07161,0 242.14323,0 363.21484,0 29.57964,0 54.63006,-32.42957 56.25,-61.96484 l 20,-364.64258 c 1.61994,-29.53526 -23.81294,-53.39258 -53.39258,-53.39258 -136.3099,0 -272.61979,0 -408.92969,0 z"
       id="rect830"
       transform="scale(0.26458333)" />
    <g
       transform="translate(0.98531221,-8.6934056)"
       aria-label="Bt"
       style="font-style:normal;font-weight:normal;font-size:10.58333302px;line-height:1.25;font-family:sans-serif;letter-spacing:0px;word-spacing:0px;fill:#ffffff;fill-opacity:1;stroke:none;stroke-width:0.26458332"
       id="text873">
      <path
         style="font-style:normal;font-variant:normal;font-weight:bold;font-stretch:normal;font-size:112.8888855px;font-family:Roboto;-inkscape-font-specification:'Roboto Bold';fill:#ffffff;fill-opacity:1;stroke-width:0.26458332"
         d="m 33.261904,120.10713 c 0,0 5.03013,80.48205 5.03013,80.48205 0,0 27.962198,0 27.962198,0 8.406937,0 14.893316,-1.97136 19.495146,-5.9144 4.650522,-3.9799 7.033608,-9.8206 7.112603,-17.52244 0.04573,-4.45896 -1.057296,-8.38358 -3.324028,-11.77386 -2.2517,-3.39029 -5.679742,-5.60134 -10.278114,-6.63317 3.575316,-1.47404 6.301941,-3.66701 8.179481,-6.57823 1.926989,-2.94807 2.908299,-6.28274 2.933307,-10.00468 0.04927,-7.33333 -2.534539,-12.84289 -7.786864,-16.52798 -5.299549,-3.68509 -12.697514,-5.52729 -22.157787,-5.52729 0,0 -27.166072,0 -27.166072,0 0,0 0,0 0,0 m 74.210256,6.02478 c 0,0 -0.40152,14.64841 -0.40152,14.64841 0,0 -8.505871,0 -8.505871,0 0,0 -0.191109,11.33183 -0.191109,11.33183 0,0 8.38636,0 8.38636,0 0,0 -0.83638,30.51255 -0.83638,30.51255 -0.18182,6.63316 1.04282,11.47889 3.65737,14.53751 2.62574,3.05863 6.43545,4.58777 11.44523,4.58777 1.62569,0 3.14268,-0.14723 4.55246,-0.44204 1.4088,-0.25795 2.86069,-0.66349 4.35593,-1.21625 0,0 -0.5646,-11.66297 -0.5646,-11.66297 -0.75567,0.2211 -1.42339,0.38693 -2.00337,0.49749 -0.54403,0.0737 -1.20405,0.11038 -1.98014,0.11038 -1.48469,0 -2.64109,-0.49749 -3.4706,-1.49246 -0.8318,-0.99498 -1.19396,-2.65327 -1.08508,-4.97488 0,0 1.4285,-30.4571 1.4285,-30.4571 0,0 9.66026,0 9.66026,0 0,0 0.66915,-11.33183 0.66915,-11.33183 0,0 -9.79793,0 -9.79793,0 0,0 0.68704,-14.64841 0.68704,-14.64841 0,0 -16.0057,0 -16.0057,0 0,0 0,0 0,0 m -57.552217,6.4124 c 0,0 10.876913,0 10.876913,0 4.568378,0 8.012211,0.88442 10.324067,2.65327 2.337999,1.76884 3.527156,4.51407 3.574692,8.236 0.0433,3.39029 -1.042219,5.96968 -3.249114,7.73852 -2.196977,1.76885 -5.357379,2.65327 -9.488644,2.65327 0,0 -11.122636,0 -11.122636,0 0,0 -0.915278,-21.28106 -0.915278,-21.28106 0,0 0,0 0,0 m 1.395518,32.44706 c 0,0 15.195907,0 15.195907,0 3.899063,0 6.769277,1.05025 8.603673,3.15075 1.824295,2.06365 2.7511,5.06718 2.787247,9.01022 0.03345,3.64825 -0.977968,6.41207 -3.02627,8.29146 -2.038684,1.84255 -5.013518,2.76364 -8.931995,2.76364 0,0 -13.63006,0 -13.63006,0 0,0 -0.998502,-23.21607 -0.998502,-23.21607 0,0 0,0 0,0"
         id="path875" />
    </g>
  </g>
</svg>
